
<svg xmlns="http://www.w3.org/2000/svg" version="1.1" xmlns:xlink="http://www.w3.org/1999/xlink" preserveAspectRatio="none" x="0px" y="0px" width="550px" height="350px" viewBox="0 0 550 350">
<defs>
<g id="Layer0_0_FILL">
<path fill="#FFFFFF" stroke="none" d="
M 418.35 91.75
Q 415.2 87.85 408.25 82.2 396.7 72.8 368.8 69.25 340.9 65.65 280.1 65.85 213.25 66 185.15 69 150.35 72.8 139.4 83.7 132.4 90.7 129.65 94.6 125.3 100.75 123 109.1 117.95 127.1 118.6 175.35 119.25 223.55 124.2 241.15 126.5 249.2 130.5 254.75 133.15 258.35 139.4 264.25 144.75 269.25 151.1 272.3 159.15 276.2 171.9 278.6 201.2 284.15 268.75 284.15 340.8 284.1 371.1 279.6 386.5 277.35 395.9 273.45 404.5 269.9 409.75 264.25 415.3 258.2 418.65 252 422.55 244.75 424.95 234.75 430 213.8 430.45 167.7 430.95 122.75 425.4 105.35 422.9 97.35 418.35 91.75 Z"/>

<path fill="#000000" fill-opacity="0.00784313725490196" stroke="none" d="
M 549 342.05
L 539 342.05 539 349.05 549 349.05 549 342.05
M 10.05 1.05
L 0.05 1.05 0.05 8.05 10.05 8.05 10.05 1.05 Z"/>
</g>
</defs>

<g transform="matrix( 1, 0, 0, 1, 0,0) ">
<use xlink:href="#Layer0_0_FILL"/>
</g>
</svg>
