
<svg xmlns="http://www.w3.org/2000/svg" version="1.1" xmlns:xlink="http://www.w3.org/1999/xlink" preserveAspectRatio="none" x="0px" y="0px" width="550px" height="400px" viewBox="0 0 550 400">
<defs>
<filter id="Filter_1" x="-27.17652002176028%" y="-22.403216710992133%" width="154.35304004352056%" height="144.80643342198425%" color-interpolation-filters="sRGB">
<feFlood flood-color="#000000" flood-opacity="0.4" in="SourceGraphic" result="result1"/>

<feComposite in2="SourceGraphic" in="result1" operator="in" result="result2"/>

<feGaussianBlur in="result2" stdDeviation="8,8" result="result3"/>

<feOffset dx="8" dy="8" in="result3" result="result4"/>

<feComposite in2="result4" in="SourceGraphic" operator="over" result="result5"/>
</filter>

<g id="popcorn_0_Layer1_0_FILL">
<path fill="#E2DBD0" stroke="none" d="
M -83.3 -31.65
L -59.45 126.45 61.7 126.45 84.95 -31.65 -83.3 -31.65 Z"/>
</g>

<g id="popcorn_0_Layer1_1_FILL">
<path fill="#F5E780" stroke="none" d="
M 19.1 -106.55
Q 14.25 -106.55 9.8 -104.85 5.5 -103.15 2 -100.1 -1.45 -97.05 -3.65 -93 -5.9 -88.85 -6.5 -84.15 -7.65 -84.35 -8.85 -84.35 -12.15 -84.35 -15.1 -82.95 -16.6 -87.35 -20.4 -90.1 -24.25 -92.9 -29.05 -92.9 -35.1 -92.9 -39.4 -88.6 -43.7 -84.3 -43.7 -78.2 -43.7 -77.6 -43.65 -76.85 -46.85 -78.2 -50.3 -78.2 -57.3 -78.2 -62.25 -73.25 -67.2 -68.3 -67.2 -61.3 -67.2 -58.3 -66.15 -55.5 -71.25 -54.7 -74.6 -50.75 -78.05 -46.8 -78.05 -41.55 -78.05 -41.2 -78 -40.4
L 80.2 -40.4
Q 80.3 -41.05 80.3 -41.55 80.3 -46.25 77.2 -49.75 74.15 -53.25 69.6 -53.85 69.65 -54.35 69.65 -54.95 69.65 -57.95 68.35 -60.55 68 -61.2 67.6 -61.8 65.55 -64.8 62.25 -66.25 62.5 -67.35 62.55 -68.45 62.6 -69.05 62.6 -69.65 62.6 -73.25 61.2 -76.55 59.85 -79.7 57.4 -82.15 54.95 -84.6 51.75 -85.95 48.45 -87.35 44.85 -87.35
L 44 -87.35
Q 41.8 -95.7 34.95 -101.1 27.95 -106.55 19.1 -106.55 Z"/>
</g>

<g id="popcorn_0_Layer1_2_FILL">
<path fill="#D74007" stroke="none" d="
M 435.75 299.6
L 311.1 299.6 361.65 932 435.75 932 435.75 299.6 Z"/>
</g>

<g id="popcorn_0_Layer1_3_FILL">
<path fill="#D74007" stroke="none" d="
M 620.85 299.6
L 496.2 299.6 496.2 932 570.35 932 620.85 299.6 Z"/>
</g>

<g id="popcorn_0_Layer1_4_FILL">
<path fill="#D74007" stroke="none" d="
M 802.5 299.6
L 681.3 299.6 630.75 932 709.45 932 802.5 299.6 Z"/>
</g>

<g id="popcorn_0_Layer1_5_FILL">
<path fill="#D74007" stroke="none" d="
M 250.7 299.6
L 129.45 299.6 224.9 932 301.2 932 250.7 299.6 Z"/>
</g>

<g id="popcorn_0_Layer1_6_FILL">
<path fill="#F7F296" stroke="none" d="
M 59.25 -70.35
Q 56.25 -71.65 52.95 -71.65
L 52.2 -71.65
Q 50.2 -79.25 43.95 -84.15 37.55 -89.1 29.5 -89.1 25.1 -89.1 21.05 -87.55 17.15 -86 13.95 -83.25 10.8 -80.45 8.8 -76.75 6.75 -73 6.2 -68.7 5.15 -68.9 4.05 -68.9 1.05 -68.9 -1.65 -67.6 -3 -71.65 -6.45 -74.15 -9.95 -76.7 -14.35 -76.7 -19.85 -76.7 -23.75 -72.75 -27.65 -68.85 -27.65 -63.3 -27.65 -62.75 -27.6 -62.05 -30.55 -63.3 -33.7 -63.3 -40.05 -63.3 -44.55 -58.8 -49.05 -54.3 -49.05 -47.9 -49.05 -45.15 -48.1 -42.6 -51.2 -42.15 -53.55 -40.4
L 78.3 -40.4
Q 77 -40.9 75.5 -41.1 75.55 -41.6 75.55 -42.1 75.55 -45.55 73.7 -48.35 71.8 -51.1 68.8 -52.4 69.15 -53.95 69.15 -55.5 69.15 -58.1 68.35 -60.55 68 -61.2 67.6 -61.8 65.55 -64.8 62.25 -66.25 62.5 -67.35 62.55 -68.45 61.05 -69.6 59.25 -70.35 Z"/>
</g>

<g id="popcorn_0_Layer0_0_FILL">
<path fill="#000000" fill-opacity="0.08627450980392157" stroke="none" d="
M -4.05 110.8
Q -27.25 122.2 -59.45 126.45
L 61.7 126.45 84.95 -31.65
Q 74.7 7.3 63.6 33.05 51.35 61.55 35.45 80.1 18.8 99.55 -4.05 110.8 Z"/>
</g>
</defs>

<g filter="url(#Filter_1)" transform="matrix( 1, 0, 0, 1, 0,0) ">
<g transform="matrix( .9, -.1, .1, .9, 93.35,111.4) ">
<g transform="matrix( 1, 0, 0, 1, 0,0) ">
<use xlink:href="#popcorn_0_Layer1_0_FILL"/>
</g>

<g transform="matrix( 1, 0, 0, 1, 0,0) ">
<use xlink:href="#popcorn_0_Layer1_1_FILL"/>
</g>

<g transform="matrix( 0.2499847412109375, 0, 0, 0.2499847412109375, -115.65,-106.55) ">
<use xlink:href="#popcorn_0_Layer1_2_FILL"/>
</g>

<g transform="matrix( 0.2499847412109375, 0, 0, 0.2499847412109375, -115.65,-106.55) ">
<use xlink:href="#popcorn_0_Layer1_3_FILL"/>
</g>

<g transform="matrix( 0.2499847412109375, 0, 0, 0.2499847412109375, -115.65,-106.55) ">
<use xlink:href="#popcorn_0_Layer1_4_FILL"/>
</g>

<g transform="matrix( 0.2499847412109375, 0, 0, 0.2499847412109375, -115.65,-106.55) ">
<use xlink:href="#popcorn_0_Layer1_5_FILL"/>
</g>

<g transform="matrix( 1, 0, 0, 1, 0,0) ">
<use xlink:href="#popcorn_0_Layer1_6_FILL"/>
</g>

<g transform="matrix( 1, 0, 0, 1, 0,0) ">
<use xlink:href="#popcorn_0_Layer0_0_FILL"/>
</g>
</g>
</g>
</svg>
